<?xml version="1.0" encoding="UTF-8"?>
<svg width="16px" height="16px" viewBox="0 0 16 16" version="1.1" xmlns="http://www.w3.org/2000/svg" xmlns:xlink="http://www.w3.org/1999/xlink">
    <title>编组</title>
    <g id="页面-1" stroke="none" stroke-width="1" fill="none" fill-rule="evenodd">
        <g id="仪表盘-应用了某个表格备份" transform="translate(-1392.000000, -722.000000)">
            <g id="编组" transform="translate(1392.000000, 722.000000)">
                <rect id="矩形" x="0" y="0" width="16" height="16"></rect>
                <g id="新增-(2)" transform="translate(1.000000, 1.000000)" fill-rule="nonzero">
                    <path d="M7.00019549,14.0738962 C3.1333538,14.0738962 0,10.923339 0,7.0369481 C0,3.14977519 3.1333538,0 7.00019549,0 C10.8658642,0 14,3.14977518 14,7.0369481 C14,10.924121 10.8670372,14.0738962 7.00019549,14.0738962 Z" id="路径" fill="#597EF7"></path>
                    <path d="M10.2219119,7.44709136 L7.47524227,7.44709136 L7.46312173,10.5910018 C7.46312173,10.7075153 7.48814476,11.2068032 6.94858546,11.2068032 C6.43639511,11.2068032 6.48761415,10.8772028 6.48761415,10.6285363 L6.48878711,7.44787333 L3.47116485,7.44787333 C3.2741084,7.44787333 3.03990839,7.44904628 3.03990839,6.84653839 C3.03990839,6.39886056 3.58767838,6.44968862 3.58767838,6.44968862 L6.48878711,6.44968862 L6.48878711,3.41603598 C6.48878711,3.2174156 6.64166225,3.04069038 6.98142821,3.06063062 C7.32119418,3.08017986 7.47406932,3.21819757 7.47406932,3.41603598 L7.47406932,6.44968862 L10.2211299,6.44968862 C10.2211299,6.44968862 10.8470969,6.36797275 10.8408878,6.92512637 C10.8341944,7.48267099 10.3478091,7.44709135 10.2219119,7.44709136 L10.2219119,7.44709136 Z" id="路径" fill="#FFFFFF"></path>
                </g>
            </g>
        </g>
    </g>
</svg>