<?xml version="1.0" encoding="UTF-8"?>
<svg width="12px" height="14px" viewBox="0 0 12 14" version="1.1" xmlns="http://www.w3.org/2000/svg" xmlns:xlink="http://www.w3.org/1999/xlink">
    <title>编组 4</title>
    <g id="页面-1" stroke="none" stroke-width="1" fill="none" fill-rule="evenodd">
        <g id="连接数据库" transform="translate(-90.000000, -117.000000)" fill="#597EF7" fill-rule="nonzero">
            <g id="编组-11" transform="translate(80.000000, 104.000000)">
                <g id="编组-10" transform="translate(8.000000, 10.000000)">
                    <g id="编组-4" transform="translate(0.000000, 2.000000)">
                        <g id="数据库,数据" transform="translate(2.000000, 1.000000)">
                            <path d="M12,3.9472723 C12,1.76804905 9.3140625,0 6,0 C2.6859375,0 0,1.76804905 0,3.9472723 L0,6.84193866 C0,6.8715432 0,6.89950305 0,6.92910759 C0,6.98831667 0.00234375,7.04588106 0.005859375,7.10509015 L0,7.10509015 L0,7.07089241 C0,7.10049695 0,7.13010149 0.001171875,7.15806134 L0,10.0527277 C0,12.2319509 2.6859375,14 6,14 C9.3140625,14 12,12.2319509 12,10.0527277 L12,7.15806134 C12,7.1284568 12,7.10049695 12,7.07089241 L12,7.10509015 L11.9941406,7.10509015 C11.9976562,7.04752576 12,6.98831667 12,6.92910759 C12,6.89950305 12,6.86989851 11.9988281,6.84193866 L12,3.9472723 Z M11.25,10.0218337 C11.25,10.2866299 11.15625,10.5662284 10.9710937,10.8524056 C10.7390625,11.2125942 10.3769531,11.5612699 9.9234375,11.85896 C9.42773438,12.18461 8.84414063,12.4428274 8.1890625,12.6253887 C7.49765625,12.819463 6.76171875,12.9165001 6,12.9165001 C5.23828125,12.9165001 4.50234375,12.819463 3.8109375,12.6270334 C3.15585937,12.4444721 2.57226563,12.1862547 2.0765625,11.8606047 C1.62304688,11.5612699 1.2609375,11.2142389 1.02890625,10.8540503 C0.84375,10.5662284 0.75,10.2866299 0.75,10.0218337 L0.75,8.9511361 C0.8296875,9.04488382 0.915234375,9.13698684 1.00546875,9.22744516 C2.08125,10.2882746 3.91640625,10.9872707 6,10.9872707 C8.08359375,10.9872707 9.91875,10.2882746 10.9945312,9.22744516 C11.0074219,9.21428759 11.0214844,9.20113001 11.034375,9.18797244 C11.0355469,9.18632774 11.0367187,9.18468305 11.0390625,9.18303835 C11.0507812,9.17152547 11.0613281,9.16001259 11.0730469,9.14849972 C11.0824219,9.13863154 11.0929688,9.12876335 11.1023438,9.11725048 C11.1105469,9.10902699 11.1175781,9.10080351 11.1257812,9.09258003 C11.1691406,9.04652851 11.2101563,8.99883231 11.25,8.9511361 L11.25,10.0218337 Z M11.25,7.03999843 C11.25,7.29328173 11.1644531,7.55972261 10.9945312,7.83438698 C10.9875,7.84589986 10.9792969,7.85905743 10.9710937,7.87057031 C10.8246094,8.09918316 10.6253906,8.32121723 10.3839844,8.53009372 C10.2445312,8.65180128 10.0898437,8.76693006 9.9234375,8.87712475 C9.42773437,9.20277471 8.84414062,9.46099211 8.1890625,9.64355345 C7.49765625,9.83598298 6.76054687,9.93302009 6,9.93302009 C5.23945312,9.93302009 4.50234375,9.83598298 3.8109375,9.64355345 C3.15585937,9.46099211 2.57226562,9.20277471 2.0765625,8.87712475 C1.91015625,8.76693006 1.75664063,8.65180128 1.61601563,8.53009372 C1.37460938,8.32121723 1.17539063,8.09753847 1.02890625,7.87057031 C1.02070313,7.85905743 1.01367188,7.84589986 1.00546875,7.83438698 C0.835546875,7.55972261 0.75,7.29328173 0.75,7.03999843 L0.75,5.85308078 C0.8296875,5.94682849 0.915234375,6.03893152 1.00546875,6.12938984 C2.08125,7.19021927 3.91640625,7.88921541 6,7.88921541 C8.08359375,7.88921541 9.91875,7.19021927 10.9945312,6.12938984 C11.0847656,6.04057621 11.1703125,5.94847319 11.25,5.85308078 L11.25,7.03999843 Z M10.7739819,4.77784418 C10.6274975,5.00645704 10.4282788,5.22849111 10.1868725,5.4373676 C10.0474194,5.55907516 9.89273191,5.67420394 9.72632566,5.78439862 C9.23062254,6.11004859 8.64702879,6.36826598 7.99195066,6.55082733 C7.30054441,6.74490155 6.76171875,6.84193866 6,6.84193866 C5.23828125,6.84193866 4.60561706,6.74490155 3.91421081,6.55247202 C3.25913269,6.36991068 2.67553894,6.11169328 2.17983581,5.78604332 C2.01342956,5.67584863 1.85991394,5.56071986 1.71928894,5.4390123 C1.47788269,5.2301358 1.27866394,5.00645704 1.13217956,4.77948888 C1.12397644,4.767976 1.11694519,4.75481843 1.10874206,4.74330555 C0.938820186,4.46699649 0.853273311,4.20055561 0.853273311,3.9472723 C0.853273311,3.68247612 0.947023311,3.30630822 1.13217956,3.02013098 C1.36421081,2.65994238 1.72632019,2.31126666 2.17983581,2.01357654 C2.67553894,1.68792657 3.25913269,1.42970918 3.91421081,1.24714783 C4.60561706,1.05307361 5.23828125,0.956036501 6,0.956036501 C6.76171875,0.956036501 7.30054441,1.05307361 7.99195066,1.24550314 C8.64702879,1.42806448 9.23062254,1.68628188 9.72632566,2.01193184 C10.1798413,2.31126666 10.5419507,2.65829768 10.7739819,3.01848628 C10.9591382,3.30630822 11.0528882,3.68247612 11.0528882,3.9472723 C11.0528882,4.20055561 10.9673413,4.46699649 10.7974194,4.74166085 C10.7903882,4.75317373 10.782185,4.76633131 10.7739819,4.77784418 Z" id="形状"></path>
                        </g>
                    </g>
                </g>
            </g>
        </g>
    </g>
</svg>