<?xml version="1.0" encoding="UTF-8"?>
<svg width="80px" height="80px" viewBox="0 0 80 80" version="1.1" xmlns="http://www.w3.org/2000/svg" xmlns:xlink="http://www.w3.org/1999/xlink">
    <title>编组 27备份</title>
    <g id="页面-1" stroke="none" stroke-width="1" fill="none" fill-rule="evenodd">
        <g id="连接管理" transform="translate(-842.000000, -599.000000)">
            <g id="编组-27备份" transform="translate(842.000000, 599.000000)">
                <rect id="矩形" x="0" y="0" width="80" height="80"></rect>
                <g id="暂无内容" transform="translate(14.842435, 13.000000)" fill="#666666" fill-rule="nonzero">
                    <path d="M15.7213002,25.5683401 L7.86065011,21.2660996 C7.5601587,21.0553039 7.17265042,21.0111961 6.83215387,21.1490318 C6.52590829,21.2737743 6.25392349,21.4694145 6.03874243,21.7197372 C5.85773501,22.0012293 5.80398052,22.3455764 5.89063299,22.668515 C5.97728545,22.9914535 6.19634962,23.2631867 6.49421934,23.4172198 L14.3548695,27.7194604 C14.6556597,27.9294729 15.0427555,27.9735338 15.3833658,27.8365282 C15.6916987,27.7155587 15.9645361,27.5193052 16.1767772,27.2658227 C16.3871613,27.0107651 16.432807,26.6584391 16.2943196,26.3585476 C16.2523377,26.0145778 16.035952,25.7161768 15.7213002,25.5683401 L15.7213002,25.5683401 Z M49.4412853,20.0222545 C49.0531185,19.7873196 48.565871,19.7873196 48.1777042,20.0222545 C47.7790836,20.2500415 47.5584257,20.6953587 47.6193776,21.1490318 L47.6193776,37.0263481 L25.9768774,49.2745634 L25.9768774,26.7097508 C25.9768774,26.4756153 25.859335,26.3585475 25.859335,26.1390455 L48.2952466,13.6713281 C48.7229511,13.4508058 48.9898998,13.0095736 48.9858084,12.5299173 C48.9433816,12.0354836 48.6335481,11.6034683 48.1777042,11.40314 L25.1687732,0.164634135 C24.823861,-0.0548780449 24.3823395,-0.0548780449 24.0374273,0.164634135 L0.910953868,11.40314 C0.467796823,11.6158284 0.167362263,12.0424959 0.117542437,12.5299173 L0.117542437,12.7640528 C0.126535484,12.8541618 0.0801443579,12.9407939 0,12.9835549 L0,37.4799856 C0.171068275,37.9450786 0.491222443,38.3410837 0.910953868,38.6067629 L23.8023424,52.4500267 C24.0507749,52.5851125 24.3275524,52.6602925 24.6104466,52.6695287 C24.8520998,52.6618016 25.0865408,52.5856622 25.2863156,52.4500267 L49.4412853,38.8408985 C49.7972104,38.5690031 50.004017,38.1462196 49.999811,37.6994877 L49.999811,21.1490318 C50.0071702,20.7056681 49.7992107,20.2859781 49.4412853,20.0222545 Z M23.2440159,26.7097508 L23.2440159,49.0404279 L2.85040398,36.7922125 L2.85040398,14.6810376 L23.3615583,26.1390455 C23.265398,26.313089 23.2244184,26.512058 23.2440159,26.7097508 Z M24.4929042,23.7537897 L4.33437719,12.646985 L24.4929042,2.66695769 L44.6514312,12.5299173 L24.4929042,23.7537897 Z" id="形状"></path>
                </g>
                <line x1="17.3860477" y1="69.431012" x2="52.877185" y2="69.431012" id="路径-7" stroke="#DCDCDC" stroke-width="2" stroke-linecap="round"></line>
                <line x1="17.3860477" y1="74.431012" x2="33.5950859" y2="74.431012" id="路径-7备份" stroke="#DCDCDC" stroke-width="2" stroke-linecap="round"></line>
                <path d="M58.5345125,13.4773655 C58.1314886,13.5688301 57.7032757,13.4607355 57.4010078,13.1780265 C57.1743068,12.9701522 57.0483619,12.6874432 57.0483619,12.3797892 C57.0483619,12.0804502 57.1743068,11.7894262 57.4010078,11.581552 L60.524443,8.48006759 C60.7343513,8.25556336 61.0198266,8.13083879 61.3304908,8.13083879 C61.6411551,8.13083879 61.9266303,8.25556336 62.1365386,8.48006759 C62.3632396,8.68794188 62.4891845,8.97065091 62.4891845,9.27830485 C62.4891845,9.57764383 62.3632396,9.86866783 62.1365386,10.0765421 L59.0131034,13.1780265 C58.8199878,13.3692708 58.7276281,13.4607355 58.5345125,13.4607355" id="路径" fill="#DCDCDC"></path>
                <path d="M65.5370528,20.7113906 C65.3943152,20.7862254 65.2263885,20.8194853 65.0584619,20.8111703 L61.0869972,20.3455319 C60.4572724,20.2956421 59.9954742,19.746854 60.0458521,19.1232311 C60.0962301,18.4996082 60.650388,18.0422848 61.2801128,18.0921746 L65.2515775,18.4663483 C65.8813024,18.5245531 66.3431006,19.0650263 66.2927226,19.6886492 C66.2927226,20.1542876 65.9904547,20.5700361 65.5370528,20.7113906" id="路径" fill="#DCDCDC"></path>
                <path d="M51.8090512,11.9806706 C51.5235759,12.0804502 51.2045153,12.0471904 50.9358327,11.9058358 C50.6671501,11.7644813 50.4740345,11.5150322 50.3900712,11.2323232 L49.0634508,7.47395604 C48.8619389,6.90853798 49.1558105,6.27660015 49.726761,6.06041089 C50.0122363,5.96063123 50.3312968,5.98557615 50.5999794,6.12693066 C50.868662,6.26828518 51.070174,6.50941935 51.1541373,6.80044335 L52.4807577,10.5588105 C52.5983063,10.8332045 52.5983063,11.1408585 52.4723613,11.4069376 C52.3464164,11.6813316 52.1029227,11.8808909 51.8090512,11.9806706" id="路径" fill="#DCDCDC"></path>
            </g>
        </g>
    </g>
</svg>